<svg version="1.1" id="Layer_1" xmlns="http://www.w3.org/2000/svg" xmlns:xlink="http://www.w3.org/1999/xlink" x="0px" y="0px"
	 width="100%" viewBox="0 0 256 256" enable-background="new 0 0 256 256" xml:space="preserve">
<path fill="#000000" opacity="1.000000" stroke="none" 
	d="
M1.000000,91.000000 
	C1.000000,60.666672 1.000000,30.833344 1.000000,1.000012 
	C86.333313,1.000008 171.666626,1.000008 256.999939,1.000004 
	C256.999969,86.333290 256.999969,171.666580 257.000000,256.999908 
	C171.666718,256.999939 86.333435,256.999939 1.000077,256.999969 
	C1.000000,201.833328 1.000000,146.666672 1.000000,91.000000 
M9.002771,136.502975 
	C9.002770,138.168320 9.002300,139.833664 9.002842,141.499008 
	C9.007586,156.094589 7.960781,170.737228 13.954863,184.741043 
	C16.744648,191.258743 18.768135,198.180069 20.403452,205.092438 
	C21.723999,210.674316 22.486933,216.413361 16.266281,220.571335 
	C14.382202,221.830643 13.600406,225.329117 13.125690,227.949081 
	C12.599751,230.851807 12.987670,233.923172 13.006157,236.920914 
	C13.055015,244.843597 17.096109,248.974167 24.933987,248.987564 
	C42.588051,249.017731 60.253979,248.595993 77.892876,249.114120 
	C94.355835,249.597687 98.169868,246.202515 96.872276,229.609177 
	C96.620422,226.388611 95.353554,222.858078 93.461098,220.270432 
	C91.748070,217.928116 91.408546,216.205154 92.178650,213.589493 
	C94.281143,206.448456 95.989380,199.189255 98.192665,192.081924 
	C98.588707,190.804398 100.518776,189.314621 101.882408,189.158051 
	C105.499680,188.742691 109.195602,189.057251 112.858330,188.984772 
	C124.429123,188.755814 136.917953,176.643982 136.947830,165.125061 
	C137.061401,121.323174 137.091782,77.520454 136.931274,33.718861 
	C136.883499,20.684063 124.650085,9.030535 111.680000,9.011178 
	C91.361160,8.980853 71.042229,8.988515 50.723362,9.007945 
	C36.904140,9.021160 25.019873,20.926350 25.007666,34.766636 
	C24.989305,55.585152 24.962976,76.403847 25.041229,97.222076 
	C25.054491,100.750252 24.713213,103.256752 20.764317,105.061356 
	C15.342729,107.538940 11.264013,112.149773 10.218898,118.194420 
	C9.238424,123.865204 9.363937,129.727219 9.002771,136.502975 
M168.953339,151.592255 
	C164.294083,159.675247 163.600754,168.699448 165.518509,177.259232 
	C168.860046,192.173996 178.655411,201.973724 193.885269,204.599960 
	C208.712830,207.156845 221.642242,202.900803 230.828323,190.211548 
	C240.904633,176.292572 239.384369,155.444321 226.895676,143.647263 
	C222.369522,139.371750 220.793945,135.095612 220.859695,129.002106 
	C221.165405,100.674110 220.861923,72.340004 221.067932,44.010201 
	C221.137711,34.416183 213.278473,24.567995 199.727783,24.703588 
	C190.918579,24.791739 180.599289,34.654037 180.789169,43.936340 
	C181.378723,72.755554 180.896439,101.595261 181.108337,130.424973 
	C181.144974,135.407211 180.223053,139.207642 176.195679,142.521484 
	C173.458633,144.773590 171.632187,148.132370 168.953339,151.592255 
z"/>
<path fill="#343434" opacity="1.000000" stroke="none" 
	d="
M9.002775,136.004028 
	C9.363937,129.727219 9.238424,123.865204 10.218898,118.194420 
	C11.264013,112.149773 15.342729,107.538940 20.764317,105.061356 
	C24.713213,103.256752 25.054491,100.750252 25.041229,97.222076 
	C24.962976,76.403847 24.989305,55.585152 25.007666,34.766636 
	C25.019873,20.926350 36.904140,9.021160 50.723362,9.007945 
	C71.042229,8.988515 91.361160,8.980853 111.680000,9.011178 
	C124.650085,9.030535 136.883499,20.684063 136.931274,33.718861 
	C137.091782,77.520454 137.061401,121.323174 136.947830,165.125061 
	C136.917953,176.643982 124.429123,188.755814 112.858330,188.984772 
	C109.195602,189.057251 105.499680,188.742691 101.882408,189.158051 
	C100.518776,189.314621 98.588707,190.804398 98.192665,192.081924 
	C95.989380,199.189255 94.281143,206.448456 92.178650,213.589493 
	C91.408546,216.205154 91.748070,217.928116 93.461098,220.270432 
	C95.353554,222.858078 96.620422,226.388611 96.872276,229.609177 
	C98.169868,246.202515 94.355835,249.597687 77.892876,249.114120 
	C60.253979,248.595993 42.588051,249.017731 24.933987,248.987564 
	C17.096109,248.974167 13.055015,244.843597 13.006157,236.920914 
	C12.987670,233.923172 12.599751,230.851807 13.125690,227.949081 
	C13.600406,225.329117 14.382202,221.830643 16.266281,220.571335 
	C22.486933,216.413361 21.723999,210.674316 20.403452,205.092438 
	C18.768135,198.180069 16.744648,191.258743 13.954863,184.741043 
	C7.960781,170.737228 9.007586,156.094589 9.002842,141.499008 
	C9.002300,139.833664 9.002770,138.168320 9.002775,136.004028 
M63.133564,164.703506 
	C63.757130,164.743240 64.380699,164.782974 65.930702,164.970749 
	C79.576118,164.980286 93.222610,164.896042 106.866341,165.052383 
	C111.380898,165.104095 113.130951,163.309723 113.052338,158.819351 
	C112.877602,148.837875 113.012505,138.851196 112.995239,128.866684 
	C112.942291,98.252045 112.877113,67.637421 112.879852,36.262360 
	C110.734352,33.197392 100.901276,30.981434 98.338867,33.778770 
	C94.918808,37.512405 91.005791,36.980484 86.936584,36.989494 
	C80.297012,37.004196 73.657326,36.970913 67.011658,37.007229 
	C67.011658,37.007229 67.047523,36.972664 66.661400,36.368538 
	C64.008331,32.327450 59.906933,32.936810 55.947876,32.986347 
	C49.737537,33.064060 49.007614,33.721581 49.004368,39.855110 
	C48.990353,66.323730 48.911781,92.793114 49.141312,119.259758 
	C49.162243,121.673279 51.208321,124.069229 52.312546,126.659332 
	C52.312546,126.659332 52.490162,126.714561 52.774788,127.340683 
	C57.892971,134.739349 57.296299,143.208664 56.886036,151.478043 
	C56.610123,157.039459 58.301090,161.146469 62.956947,164.050797 
	C62.956947,164.050797 62.847881,164.124634 63.133564,164.703506 
M41.959785,20.959509 
	C41.959785,20.959509 41.950108,20.889553 41.253391,20.906698 
	C35.842587,24.739252 33.071270,30.088081 33.046906,36.600742 
	C32.944923,63.860767 33.003895,91.121399 33.003895,118.388863 
	C34.377701,118.223572 35.650082,118.070488 37.633270,118.114845 
	C41.827309,119.418335 40.971733,116.293350 40.974834,114.168167 
	C41.010506,89.695122 41.070614,65.221649 40.944809,40.749210 
	C40.915833,35.111889 41.360207,28.840942 46.964478,27.151163 
	C53.189449,25.274229 60.785633,24.314707 66.705811,26.252399 
	C71.119926,27.697155 75.224113,28.989944 79.787666,28.978907 
	C83.605789,28.969671 88.588524,30.265640 91.000984,28.369547 
	C96.163994,24.311638 101.541138,25.048677 107.048424,25.035069 
	C116.267944,25.012281 120.974457,29.675585 120.983078,38.829185 
	C121.020897,78.951691 121.021294,119.074287 120.982750,159.196793 
	C120.973976,168.328171 116.249962,172.931580 107.019737,172.990723 
	C95.699966,173.063263 84.379791,173.071365 72.325462,173.084946 
	C71.787575,174.253418 70.681961,175.495575 70.822182,176.576065 
	C71.188820,179.401215 72.561745,181.580856 76.981491,180.950989 
	C87.309975,180.966339 97.657326,181.347351 107.957573,180.815613 
	C112.032555,180.605225 116.002731,178.364777 120.695381,176.905258 
	C126.542427,173.348236 128.897720,167.703857 128.918594,161.314560 
	C129.054550,119.708374 129.083694,78.101051 128.883591,36.495369 
	C128.852463,30.024214 126.615196,24.052179 119.578369,20.403799 
	C115.677452,19.270052 111.794281,17.234371 107.872566,17.157181 
	C89.974945,16.804916 72.063477,16.829443 54.164406,17.142868 
	C50.408199,17.208639 46.683331,19.064451 42.389988,20.082834 
	C42.223473,20.370600 42.056957,20.658363 41.959785,20.959509 
M79.953026,225.126694 
	C61.920536,225.129654 43.888046,225.132614 25.088856,225.057648 
	C23.763044,226.092056 21.615414,226.916748 21.286552,228.205536 
	C20.648430,230.706253 20.991043,233.468033 21.003763,236.121277 
	C21.019014,239.302963 22.411825,241.154251 26.809341,240.943680 
	C44.828373,240.880219 62.847401,240.816757 81.718750,240.897049 
	C88.540718,240.904526 89.232758,239.993866 88.996468,231.320267 
	C88.842796,225.679214 87.656036,224.792496 79.953026,225.126694 
M66.758003,192.270676 
	C66.208794,191.467987 65.166451,190.653656 65.185059,189.864349 
	C65.426628,179.615463 59.389885,172.718918 53.170666,165.586334 
	C50.800747,162.868362 49.703873,158.578690 49.165936,154.841370 
	C48.486717,150.122498 49.169807,145.225342 48.910725,140.424225 
	C48.462418,132.116714 43.299011,126.803909 34.950394,126.637833 
	C34.301369,128.148041 33.119995,129.647980 33.090637,131.170135 
	C32.914394,140.308609 32.978161,149.452286 33.016781,158.593979 
	C33.029266,161.549316 33.067665,164.760742 29.147392,164.832428 
	C24.850248,164.910980 24.939211,161.480835 24.996916,158.379013 
	C25.018555,157.215897 25.004230,156.052048 24.999744,154.888550 
	C24.948494,141.594925 24.895977,128.301285 24.972811,114.262955 
	C24.250383,114.103180 23.202812,113.553169 22.854969,113.842979 
	C18.583242,117.402122 17.064693,122.242676 17.021139,127.587112 
	C16.939802,137.567200 16.788404,147.554413 17.080530,157.526520 
	C17.219980,162.286804 17.846376,167.140411 19.052244,171.742111 
	C22.968416,186.686554 31.468143,200.547592 28.744081,216.842102 
	C30.680830,216.842102 31.837255,216.842102 33.923496,216.974579 
	C47.585957,216.923569 61.248413,216.872559 75.781105,216.971680 
	C78.022018,216.495636 81.816162,216.608170 82.255302,215.449341 
	C85.437576,207.051620 87.942619,198.397278 90.872055,189.161942 
	C87.168365,189.161942 84.573326,189.161942 81.096191,189.026947 
	C77.647942,189.334778 73.666809,187.559418 71.282242,192.000351 
	C70.858398,192.789673 68.626579,192.608200 66.758003,192.270676 
z"/>
<path fill="#343434" opacity="1.000000" stroke="none" 
	d="
M169.175934,151.294250 
	C171.632187,148.132370 173.458633,144.773590 176.195679,142.521484 
	C180.223053,139.207642 181.144974,135.407211 181.108337,130.424973 
	C180.896439,101.595261 181.378723,72.755554 180.789169,43.936340 
	C180.599289,34.654037 190.918579,24.791739 199.727783,24.703588 
	C213.278473,24.567995 221.137711,34.416183 221.067932,44.010201 
	C220.861923,72.340004 221.165405,100.674110 220.859695,129.002106 
	C220.793945,135.095612 222.369522,139.371750 226.895676,143.647263 
	C239.384369,155.444321 240.904633,176.292572 230.828323,190.211548 
	C221.642242,202.900803 208.712830,207.156845 193.885269,204.599960 
	C178.655411,201.973724 168.860046,192.173996 165.518509,177.259232 
	C163.600754,168.699448 164.294083,159.675247 169.175934,151.294250 
M184.670135,146.714828 
	C184.670135,146.714828 184.634247,146.604767 184.011093,146.858490 
	C169.058853,159.527512 169.328064,180.367630 184.628525,191.342697 
	C184.628525,191.342697 184.531525,191.328064 184.849792,191.825653 
	C185.206924,191.978134 185.564072,192.130630 186.324524,192.837158 
	C192.829254,196.408737 199.577988,198.380981 207.757294,196.054092 
	C219.552948,192.840729 226.726349,185.059586 228.601028,173.170929 
	C230.382645,161.872543 226.093781,152.561157 216.648972,145.984283 
	C213.836655,144.025909 212.932068,141.803879 212.942871,138.491608 
	C213.042755,107.876770 213.024948,77.261429 212.986435,46.646301 
	C212.975357,37.841991 208.369217,33.176514 199.319427,33.145309 
	C197.887009,33.750069 196.454605,34.354832 194.333115,35.100506 
	C190.082306,38.070572 188.957413,42.302666 188.962265,47.263523 
	C188.993484,79.186241 188.908279,111.109070 188.356323,143.325806 
	C187.549942,144.149857 186.743561,144.973907 185.366409,145.928116 
	C185.095917,146.194183 184.825424,146.460251 184.670135,146.714828 
z"/>
<path fill="#E4EFF8" opacity="1.000000" stroke="none" 
	d="
M112.816696,37.022785 
	C112.877113,67.637421 112.942291,98.252045 112.995239,128.866684 
	C113.012505,138.851196 112.877602,148.837875 113.052338,158.819351 
	C113.130951,163.309723 111.380898,165.104095 106.866341,165.052383 
	C93.222610,164.896042 79.576118,164.980286 65.236618,164.715439 
	C63.977654,164.348297 63.412769,164.236465 62.847881,164.124634 
	C62.847881,164.124634 62.956947,164.050797 62.939205,163.698181 
	C62.278801,156.009552 61.976070,148.621506 60.864136,141.357330 
	C60.212231,137.098465 58.508213,132.932968 56.761604,128.951797 
	C56.257431,127.802597 53.963539,127.438560 52.490162,126.714561 
	C52.490162,126.714561 52.312546,126.659332 52.475994,126.087143 
	C52.757954,123.364510 52.977268,121.214157 52.979519,119.063583 
	C53.004353,95.311203 52.986046,71.558792 53.000763,47.806400 
	C53.006016,39.327072 55.436676,36.980991 64.060333,37.001854 
	C65.056038,37.004261 66.051788,36.982967 67.047523,36.972664 
	C67.047523,36.972664 67.011658,37.007229 67.073715,37.355064 
	C68.138046,38.717937 69.210564,40.671463 70.131706,40.602512 
	C79.113609,39.930202 88.616692,44.141911 97.059998,37.821678 
	C98.109612,37.035992 99.901543,37.068604 101.357216,37.032440 
	C105.174767,36.937618 108.996582,37.014393 112.816696,37.022785 
M64.301338,93.099243 
	C64.530006,93.680855 64.962921,94.265923 64.953163,94.843506 
	C64.901741,97.886620 65.176521,100.935951 69.102837,100.849297 
	C73.038704,100.762413 73.089447,97.598213 73.034492,94.634079 
	C73.026276,94.191048 73.231926,93.744049 73.409073,93.005058 
	C81.436188,93.005058 89.405594,93.043419 97.374306,92.986229 
	C100.574677,92.963257 104.872047,93.921715 104.802490,88.868378 
	C104.738625,84.228958 100.687614,85.018982 97.607002,85.006279 
	C89.481812,84.972778 81.356384,84.994949 73.231056,84.994949 
	C73.577454,84.585442 73.923843,84.175926 74.270241,83.766418 
	C72.628967,81.531868 71.223579,77.654251 69.301132,77.378265 
	C64.040321,76.623024 65.367004,81.705650 64.747894,85.002846 
	C63.505562,85.002846 62.259235,84.618629 61.609074,85.078056 
	C59.950611,86.250000 57.346458,87.753777 57.293022,89.204781 
	C57.149239,93.108734 60.514053,93.085304 64.301338,93.099243 
M85.257629,121.005409 
	C86.483246,121.133484 87.708870,121.261551 88.969131,121.393234 
	C89.031441,124.894775 88.467804,129.205872 92.989014,128.602692 
	C95.065475,128.325668 96.665710,124.479050 98.035767,122.798401 
	C100.608932,120.602043 102.771263,118.756355 104.933586,116.910667 
	C102.685997,115.110992 100.438416,113.311317 98.190826,111.511635 
	C96.671524,109.537872 97.853889,104.724564 92.916153,105.390915 
	C90.867523,105.667381 89.308372,109.570984 86.601898,112.994995 
	C80.230545,112.994995 71.934273,113.013008 63.638153,112.985672 
	C60.546844,112.975487 57.061928,112.795639 57.158455,117.102982 
	C57.254837,121.403954 60.823433,121.013863 63.848503,121.008698 
	C70.669151,120.997063 77.489845,121.005104 85.257629,121.005409 
M76.489426,65.005066 
	C80.609940,65.005066 84.730453,65.005066 88.850967,65.005066 
	C88.477547,65.460121 88.104118,65.915176 87.730698,66.370232 
	C89.401161,68.558441 90.856102,72.367561 92.783455,72.623840 
	C98.070351,73.326843 96.506088,68.117577 97.932152,65.714684 
	C100.600899,64.586411 104.377670,63.103546 104.624352,61.170265 
	C105.299408,55.879494 100.040466,57.547497 97.698143,56.022694 
	C96.574982,53.357971 95.082024,49.619774 93.139214,49.369183 
	C87.894569,48.692719 89.484543,53.897068 88.699280,56.997341 
	C79.561676,56.997341 70.754280,56.801785 61.970333,57.168285 
	C60.286293,57.238556 57.611576,59.293236 57.290176,60.829205 
	C56.660583,63.838100 59.094219,65.043640 62.024342,65.014702 
	C66.513794,64.970367 71.004028,65.004333 76.489426,65.005066 
z"/>
<path fill="#FFC6A0" opacity="1.000000" stroke="none" 
	d="
M74.910873,216.821548 
	C61.248413,216.872559 47.585957,216.923569 33.465755,216.451477 
	C33.779140,206.141647 31.697996,196.957733 28.300352,187.752563 
	C25.165157,179.258423 22.264370,170.381058 21.310808,161.453491 
	C20.119028,150.295624 20.682304,138.898193 21.198431,127.636757 
	C21.393509,123.380302 23.570330,119.214676 24.843800,115.007652 
	C24.895977,128.301285 24.948494,141.594925 24.999744,154.888550 
	C25.004230,156.052048 25.018555,157.215897 24.996916,158.379013 
	C24.939211,161.480835 24.850248,164.910980 29.147392,164.832428 
	C33.067665,164.760742 33.029266,161.549316 33.016781,158.593979 
	C32.978161,149.452286 32.914394,140.308609 33.090637,131.170135 
	C33.119995,129.647980 34.301369,128.148041 35.522602,126.951080 
	C37.335659,129.790039 39.306679,132.215271 39.670868,134.861618 
	C40.524544,141.064819 40.763927,147.368973 40.963860,153.641434 
	C41.196743,160.947769 43.284878,167.446762 48.866943,172.340302 
	C53.759861,176.629715 56.610386,181.780609 57.017559,188.272385 
	C57.223400,191.554245 59.088562,192.992645 62.246044,192.974533 
	C63.907372,192.964996 65.568436,192.909653 67.229614,192.875000 
	C68.626579,192.608200 70.858398,192.789673 71.282242,192.000351 
	C73.666809,187.559418 77.647942,189.334778 81.535614,189.495651 
	C81.827667,190.945557 81.777420,191.953278 81.517654,192.903763 
	C79.337151,200.882309 77.118233,208.850342 74.910873,216.821548 
z"/>
<path fill="#38668C" opacity="1.000000" stroke="none" 
	d="
M42.944023,20.095411 
	C46.683331,19.064451 50.408199,17.208639 54.164406,17.142868 
	C72.063477,16.829443 89.974945,16.804916 107.872566,17.157181 
	C111.794281,17.234371 115.677452,19.270052 119.848686,21.039516 
	C124.778694,29.053112 125.137566,37.206642 125.085175,45.661053 
	C124.879845,78.798630 125.004372,111.938232 124.999420,145.077087 
	C124.997787,155.990875 126.230331,167.100189 120.020630,177.048645 
	C116.002731,178.364777 112.032555,180.605225 107.957573,180.815613 
	C97.657326,181.347351 87.309975,180.966339 76.431702,180.579590 
	C74.941200,177.841248 74.000496,175.474289 73.059792,173.107330 
	C84.379791,173.071365 95.699966,173.063263 107.019737,172.990723 
	C116.249962,172.931580 120.973976,168.328171 120.982750,159.196793 
	C121.021294,119.074287 121.020897,78.951691 120.983078,38.829185 
	C120.974457,29.675585 116.267944,25.012281 107.048424,25.035069 
	C101.541138,25.048677 96.163994,24.311638 91.000984,28.369547 
	C88.588524,30.265640 83.605789,28.969671 79.787666,28.978907 
	C75.224113,28.989944 71.119926,27.697155 66.705811,26.252399 
	C60.785633,24.314707 53.189449,25.274229 46.964478,27.151163 
	C41.360207,28.840942 40.915833,35.111889 40.944809,40.749210 
	C41.070614,65.221649 41.010506,89.695122 40.974834,114.168167 
	C40.971733,116.293350 41.827309,119.418335 37.313309,117.554764 
	C36.998238,97.016869 36.900192,77.038292 37.046093,57.061508 
	C37.135517,44.818066 35.079376,32.233116 41.950108,20.889553 
	C41.950108,20.889553 41.959785,20.959509 42.209030,21.124104 
	C42.620193,20.890938 42.782108,20.493176 42.944023,20.095411 
z"/>
<path fill="#38668C" opacity="1.000000" stroke="none" 
	d="
M25.855556,225.135559 
	C43.888046,225.132614 61.920536,225.129654 80.441360,225.628693 
	C80.908607,231.004898 80.887520,235.879105 80.866432,240.753311 
	C62.847401,240.816757 44.828373,240.880219 26.254942,240.506882 
	C25.752214,235.091904 25.803885,230.113739 25.855556,225.135559 
z"/>
<path fill="#2C5170" opacity="1.000000" stroke="none" 
	d="
M120.358002,176.976959 
	C126.230331,167.100189 124.997787,155.990875 124.999420,145.077087 
	C125.004372,111.938232 124.879845,78.798630 125.085175,45.661053 
	C125.137566,37.206642 124.778694,29.053112 120.070496,21.312130 
	C126.615196,24.052179 128.852463,30.024214 128.883591,36.495369 
	C129.083694,78.101051 129.054550,119.708374 128.918594,161.314560 
	C128.897720,167.703857 126.542427,173.348236 120.358002,176.976959 
z"/>
<path fill="#FCAD79" opacity="1.000000" stroke="none" 
	d="
M66.993805,192.572845 
	C65.568436,192.909653 63.907372,192.964996 62.246044,192.974533 
	C59.088562,192.992645 57.223400,191.554245 57.017559,188.272385 
	C56.610386,181.780609 53.759861,176.629715 48.866943,172.340302 
	C43.284878,167.446762 41.196743,160.947769 40.963860,153.641434 
	C40.763927,147.368973 40.524544,141.064819 39.670868,134.861618 
	C39.306679,132.215271 37.335659,129.790039 35.942928,126.909317 
	C43.299011,126.803909 48.462418,132.116714 48.910725,140.424225 
	C49.169807,145.225342 48.486717,150.122498 49.165936,154.841370 
	C49.703873,158.578690 50.800747,162.868362 53.170666,165.586334 
	C59.389885,172.718918 65.426628,179.615463 65.185059,189.864349 
	C65.166451,190.653656 66.208794,191.467987 66.993805,192.572845 
z"/>
<path fill="#C3DAEE" opacity="1.000000" stroke="none" 
	d="
M66.854462,36.670601 
	C66.051788,36.982967 65.056038,37.004261 64.060333,37.001854 
	C55.436676,36.980991 53.006016,39.327072 53.000763,47.806400 
	C52.986046,71.558792 53.004353,95.311203 52.979519,119.063583 
	C52.977268,121.214157 52.757954,123.364510 52.476707,125.994156 
	C51.208321,124.069229 49.162243,121.673279 49.141312,119.259758 
	C48.911781,92.793114 48.990353,66.323730 49.004368,39.855110 
	C49.007614,33.721581 49.737537,33.064060 55.947876,32.986347 
	C59.906933,32.936810 64.008331,32.327450 66.854462,36.670601 
z"/>
<path fill="#F4F3F3" opacity="1.000000" stroke="none" 
	d="
M24.908306,114.635300 
	C23.570330,119.214676 21.393509,123.380302 21.198431,127.636757 
	C20.682304,138.898193 20.119028,150.295624 21.310808,161.453491 
	C22.264370,170.381058 25.165157,179.258423 28.300352,187.752563 
	C31.697996,196.957733 33.779140,206.141647 33.000847,216.385223 
	C31.837255,216.842102 30.680830,216.842102 28.744081,216.842102 
	C31.468143,200.547592 22.968416,186.686554 19.052244,171.742111 
	C17.846376,167.140411 17.219980,162.286804 17.080530,157.526520 
	C16.788404,147.554413 16.939802,137.567200 17.021139,127.587112 
	C17.064693,122.242676 18.583242,117.402122 22.854969,113.842979 
	C23.202812,113.553169 24.250383,114.103180 24.908306,114.635300 
z"/>
<path fill="#F5F6F6" opacity="1.000000" stroke="none" 
	d="
M41.601749,20.898125 
	C35.079376,32.233116 37.135517,44.818066 37.046093,57.061508 
	C36.900192,77.038292 36.998238,97.016869 36.957909,117.456047 
	C35.650082,118.070488 34.377701,118.223572 33.003895,118.388863 
	C33.003895,91.121399 32.944923,63.860767 33.046906,36.600742 
	C33.071270,30.088081 35.842587,24.739252 41.601749,20.898125 
z"/>
<path fill="#FCAD79" opacity="1.000000" stroke="none" 
	d="
M75.345993,216.896606 
	C77.118233,208.850342 79.337151,200.882309 81.517654,192.903763 
	C81.777420,191.953278 81.827667,190.945557 81.976669,189.563141 
	C84.573326,189.161942 87.168365,189.161942 90.872055,189.161942 
	C87.942619,198.397278 85.437576,207.051620 82.255302,215.449341 
	C81.816162,216.608170 78.022018,216.495636 75.345993,216.896606 
z"/>
<path fill="#C3DAEE" opacity="1.000000" stroke="none" 
	d="
M112.848274,36.642570 
	C108.996582,37.014393 105.174767,36.937618 101.357216,37.032440 
	C99.901543,37.068604 98.109612,37.035992 97.059998,37.821678 
	C88.616692,44.141911 79.113609,39.930202 70.131706,40.602512 
	C69.210564,40.671463 68.138046,38.717937 67.076729,37.330387 
	C73.657326,36.970913 80.297012,37.004196 86.936584,36.989494 
	C91.005791,36.980484 94.918808,37.512405 98.338867,33.778770 
	C100.901276,30.981434 110.734352,33.197392 112.848274,36.642570 
z"/>
<path fill="#C3DAEE" opacity="1.000000" stroke="none" 
	d="
M52.632477,127.027618 
	C53.963539,127.438560 56.257431,127.802597 56.761604,128.951797 
	C58.508213,132.932968 60.212231,137.098465 60.864136,141.357330 
	C61.976070,148.621506 62.278801,156.009552 62.899834,163.750977 
	C58.301090,161.146469 56.610123,157.039459 56.886036,151.478043 
	C57.296299,143.208664 57.892971,134.739349 52.632477,127.027618 
z"/>
<path fill="#2C5170" opacity="1.000000" stroke="none" 
	d="
M81.292587,240.825180 
	C80.887520,235.879105 80.908607,231.004898 80.898155,225.688293 
	C87.656036,224.792496 88.842796,225.679214 88.996468,231.320267 
	C89.232758,239.993866 88.540718,240.904526 81.292587,240.825180 
z"/>
<path fill="#F4F3F3" opacity="1.000000" stroke="none" 
	d="
M25.472206,225.096603 
	C25.803885,230.113739 25.752214,235.091904 25.778706,240.468475 
	C22.411825,241.154251 21.019014,239.302963 21.003763,236.121277 
	C20.991043,233.468033 20.648430,230.706253 21.286552,228.205536 
	C21.615414,226.916748 23.763044,226.092056 25.472206,225.096603 
z"/>
<path fill="#2C5170" opacity="1.000000" stroke="none" 
	d="
M72.692627,173.096130 
	C74.000496,175.474289 74.941200,177.841248 75.967606,180.544327 
	C72.561745,181.580856 71.188820,179.401215 70.822182,176.576065 
	C70.681961,175.495575 71.787575,174.253418 72.692627,173.096130 
z"/>
<path fill="#C3DAEE" opacity="1.000000" stroke="none" 
	d="
M62.990723,164.414062 
	C63.412769,164.236465 63.977654,164.348297 64.773407,164.641418 
	C64.380699,164.782974 63.757130,164.743240 62.990723,164.414062 
z"/>
<path fill="#F5F6F6" opacity="1.000000" stroke="none" 
	d="
M42.667007,20.089123 
	C42.782108,20.493176 42.620193,20.890938 42.174362,21.117414 
	C42.056957,20.658363 42.223473,20.370600 42.667007,20.089123 
z"/>
<path fill="#E2EDF6" opacity="1.000000" stroke="none" 
	d="
M206.992371,195.990509 
	C199.577988,198.380981 192.829254,196.408737 185.939392,192.338669 
	C185.213348,191.669479 184.872437,191.498764 184.531525,191.328064 
	C184.531525,191.328064 184.628525,191.342697 184.646790,191.017822 
	C184.385834,189.935883 184.244446,189.086151 183.807053,188.435379 
	C174.744934,174.952713 174.701706,163.566895 183.621094,149.776749 
	C184.202881,148.877274 184.307602,147.669266 184.634247,146.604767 
	C184.634247,146.604767 184.670135,146.714828 184.882294,146.626801 
	C185.375351,146.291840 185.656265,146.044891 185.937180,145.797958 
	C186.743561,144.973907 187.549942,144.149857 188.996902,143.106171 
	C193.252457,142.143845 193.011810,139.352737 193.010468,136.633209 
	C192.997833,111.148941 192.839813,85.663033 193.096359,60.181347 
	C193.181046,51.768482 194.349350,43.366531 195.022186,34.959591 
	C196.454605,34.354832 197.887009,33.750069 199.853500,33.463875 
	C205.905609,39.767811 205.965561,46.722870 203.636353,53.907646 
	C198.375031,52.717350 197.032333,53.724480 197.015656,58.814407 
	C196.968674,73.147079 196.998978,87.480011 196.998917,101.812836 
	C196.998856,118.967430 196.998901,136.122025 196.998901,153.140259 
	C187.638031,157.900085 183.680984,164.347092 185.239288,172.001724 
	C186.708359,179.218079 193.141281,184.722641 200.401489,184.975784 
	C207.814209,185.234238 214.295639,180.440536 216.406647,173.138290 
	C218.682877,165.264526 215.234680,159.086899 205.155029,152.982986 
	C205.153641,149.325104 205.153641,145.667191 205.486420,142.075256 
	C215.664825,147.664001 220.105453,156.621506 220.910416,167.360352 
	C221.813568,179.409210 216.007935,188.570831 206.992371,195.990509 
z"/>
<path fill="#C3DAEE" opacity="1.000000" stroke="none" 
	d="
M207.374832,196.022308 
	C216.007935,188.570831 221.813568,179.409210 220.910416,167.360352 
	C220.105453,156.621506 215.664825,147.664001 205.417267,141.610992 
	C205.010681,114.158554 205.028519,87.236275 204.957626,60.314224 
	C204.952118,58.222038 204.324875,56.131481 203.986603,54.040165 
	C205.965561,46.722870 205.905609,39.767811 200.195435,33.512726 
	C208.369217,33.176514 212.975357,37.841991 212.986435,46.646301 
	C213.024948,77.261429 213.042755,107.876770 212.942871,138.491608 
	C212.932068,141.803879 213.836655,144.025909 216.648972,145.984283 
	C226.093781,152.561157 230.382645,161.872543 228.601028,173.170929 
	C226.726349,185.059586 219.552948,192.840729 207.374832,196.022308 
z"/>
<path fill="#F7F7F7" opacity="1.000000" stroke="none" 
	d="
M194.677643,35.030048 
	C194.349350,43.366531 193.181046,51.768482 193.096359,60.181347 
	C192.839813,85.663033 192.997833,111.148941 193.010468,136.633209 
	C193.011810,139.352737 193.252457,142.143845 189.249390,142.959198 
	C188.908279,111.109070 188.993484,79.186241 188.962265,47.263523 
	C188.957413,42.302666 190.082306,38.070572 194.677643,35.030048 
z"/>
<path fill="#EFEFF0" opacity="1.000000" stroke="none" 
	d="
M184.322662,146.731628 
	C184.307602,147.669266 184.202881,148.877274 183.621094,149.776749 
	C174.701706,163.566895 174.744934,174.952713 183.807053,188.435379 
	C184.244446,189.086151 184.385834,189.935883 184.625977,191.062241 
	C169.328064,180.367630 169.058853,159.527512 184.322662,146.731628 
z"/>
<path fill="#EFEFF0" opacity="1.000000" stroke="none" 
	d="
M184.690659,191.576859 
	C184.872437,191.498764 185.213348,191.669479 185.737732,192.061646 
	C185.564072,192.130630 185.206924,191.978134 184.690659,191.576859 
z"/>
<path fill="#EFEFF0" opacity="1.000000" stroke="none" 
	d="
M185.651794,145.863037 
	C185.656265,146.044891 185.375351,146.291840 184.824692,146.632553 
	C184.825424,146.460251 185.095917,146.194183 185.651794,145.863037 
z"/>
<path fill="#353535" opacity="1.000000" stroke="none" 
	d="
M63.873596,93.057755 
	C60.514053,93.085304 57.149239,93.108734 57.293022,89.204781 
	C57.346458,87.753777 59.950611,86.250000 61.609074,85.078056 
	C62.259235,84.618629 63.505562,85.002846 64.747894,85.002846 
	C65.367004,81.705650 64.040321,76.623024 69.301132,77.378265 
	C71.223579,77.654251 72.628967,81.531868 74.270241,83.766418 
	C73.923843,84.175926 73.577454,84.585442 73.231056,84.994949 
	C81.356384,84.994949 89.481812,84.972778 97.607002,85.006279 
	C100.687614,85.018982 104.738625,84.228958 104.802490,88.868378 
	C104.872047,93.921715 100.574677,92.963257 97.374306,92.986229 
	C89.405594,93.043419 81.436188,93.005058 73.409073,93.005058 
	C73.231926,93.744049 73.026276,94.191048 73.034492,94.634079 
	C73.089447,97.598213 73.038704,100.762413 69.102837,100.849297 
	C65.176521,100.935951 64.901741,97.886620 64.953163,94.843506 
	C64.962921,94.265923 64.530006,93.680855 63.873596,93.057755 
z"/>
<path fill="#353535" opacity="1.000000" stroke="none" 
	d="
M84.784073,121.005280 
	C77.489845,121.005104 70.669151,120.997063 63.848503,121.008698 
	C60.823433,121.013863 57.254837,121.403954 57.158455,117.102982 
	C57.061928,112.795639 60.546844,112.975487 63.638153,112.985672 
	C71.934273,113.013008 80.230545,112.994995 86.601898,112.994995 
	C89.308372,109.570984 90.867523,105.667381 92.916153,105.390915 
	C97.853889,104.724564 96.671524,109.537872 98.190826,111.511635 
	C100.438416,113.311317 102.685997,115.110992 104.933586,116.910667 
	C102.771263,118.756355 100.608932,120.602043 98.035767,122.798401 
	C96.665710,124.479050 95.065475,128.325668 92.989014,128.602692 
	C88.467804,129.205872 89.031441,124.894775 88.969131,121.393234 
	C87.708870,121.261551 86.483246,121.133484 84.784073,121.005280 
z"/>
<path fill="#353535" opacity="1.000000" stroke="none" 
	d="
M75.991676,65.005066 
	C71.004028,65.004333 66.513794,64.970367 62.024342,65.014702 
	C59.094219,65.043640 56.660583,63.838100 57.290176,60.829205 
	C57.611576,59.293236 60.286293,57.238556 61.970333,57.168285 
	C70.754280,56.801785 79.561676,56.997341 88.699280,56.997341 
	C89.484543,53.897068 87.894569,48.692719 93.139214,49.369183 
	C95.082024,49.619774 96.574982,53.357971 97.698143,56.022694 
	C100.040466,57.547497 105.299408,55.879494 104.624352,61.170265 
	C104.377670,63.103546 100.600899,64.586411 97.932152,65.714684 
	C96.506088,68.117577 98.070351,73.326843 92.783455,72.623840 
	C90.856102,72.367561 89.401161,68.558441 87.730698,66.370232 
	C88.104118,65.915176 88.477547,65.460121 88.850967,65.005066 
	C84.730453,65.005066 80.609940,65.005066 75.991676,65.005066 
z"/>
<path fill="#353535" opacity="1.000000" stroke="none" 
	d="
M203.636353,53.907646 
	C204.324875,56.131481 204.952118,58.222038 204.957626,60.314224 
	C205.028519,87.236275 205.010681,114.158554 205.084473,141.545044 
	C205.153641,145.667191 205.153641,149.325104 205.155029,152.982986 
	C215.234680,159.086899 218.682877,165.264526 216.406647,173.138290 
	C214.295639,180.440536 207.814209,185.234238 200.401489,184.975784 
	C193.141281,184.722641 186.708359,179.218079 185.239288,172.001724 
	C183.680984,164.347092 187.638031,157.900085 196.998901,153.140259 
	C196.998901,136.122025 196.998856,118.967430 196.998917,101.812836 
	C196.998978,87.480011 196.968674,73.147079 197.015656,58.814407 
	C197.032333,53.724480 198.375031,52.717350 203.636353,53.907646 
M203.007324,161.405640 
	C202.688583,161.342285 202.369858,161.278946 201.349792,161.068420 
	C200.506836,161.340332 199.663895,161.612244 198.095230,161.898712 
	C196.402237,164.212250 193.731979,166.338165 193.243469,168.882919 
	C192.495911,172.777206 195.259918,175.466431 199.742798,176.954742 
	C200.510605,176.894211 201.278427,176.833664 202.546371,176.798447 
	C202.759399,176.570770 202.972443,176.343109 203.053940,176.160736 
	C203.053940,176.160736 203.120560,176.282852 203.860321,176.258774 
	C207.667770,174.873306 209.313766,171.957001 208.885803,168.142181 
	C208.516098,164.846725 206.897888,162.191742 203.060303,161.829880 
	C203.060303,161.829880 203.194122,161.873596 203.007324,161.405640 
z"/>
<path fill="#FF5353" opacity="1.000000" stroke="none" 
	d="
M198.820938,161.884140 
	C199.663895,161.612244 200.506836,161.340332 201.858612,161.301422 
	C202.611862,161.723343 202.887436,161.836395 203.194122,161.873596 
	C203.194122,161.873596 203.060303,161.829880 203.188629,162.153229 
	C206.089462,167.119049 204.843445,171.704346 203.120560,176.282852 
	C203.120560,176.282852 203.053940,176.160736 202.901825,176.195435 
	C202.467819,176.349716 202.233322,176.530716 202.046234,176.773132 
	C201.278427,176.833664 200.510605,176.894211 199.352585,176.522705 
	C196.411942,171.380096 196.654556,166.641693 198.820938,161.884140 
z"/>
<path fill="#EFEFF0" opacity="1.000000" stroke="none" 
	d="
M198.458084,161.891418 
	C196.654556,166.641693 196.411942,171.380096 198.969788,176.469452 
	C195.259918,175.466431 192.495911,172.777206 193.243469,168.882919 
	C193.731979,166.338165 196.402237,164.212250 198.458084,161.891418 
z"/>
<path fill="#ED2B2B" opacity="1.000000" stroke="none" 
	d="
M203.490448,176.270813 
	C204.843445,171.704346 206.089462,167.119049 203.222229,162.091385 
	C206.897888,162.191742 208.516098,164.846725 208.885803,168.142181 
	C209.313766,171.957001 207.667770,174.873306 203.490448,176.270813 
z"/>
<path fill="#ED2B2B" opacity="1.000000" stroke="none" 
	d="
M202.296295,176.785797 
	C202.233322,176.530716 202.467819,176.349716 202.967606,176.172791 
	C202.972443,176.343109 202.759399,176.570770 202.296295,176.785797 
z"/>
<path fill="#ED2B2B" opacity="1.000000" stroke="none" 
	d="
M203.100723,161.639618 
	C202.887436,161.836395 202.611862,161.723343 202.209274,161.375015 
	C202.369858,161.278946 202.688583,161.342285 203.100723,161.639618 
z"/>
</svg>